<?xml version="1.0" encoding="utf-8"?>
<!-- Generator: Adobe Illustrator 24.1.0, SVG Export Plug-In . SVG Version: 6.00 Build 0)  -->
<svg version="1.2" baseProfile="tiny" id="Layer_1" xmlns="http://www.w3.org/2000/svg" xmlns:xlink="http://www.w3.org/1999/xlink"
	 x="0px" y="0px" viewBox="0 0 532 131" xml:space="preserve">
<g>
	<path fill="#008148" d="M0.01,91.779C20.266,31.935,59.095-0.125,59.095-0.125c20.951,27.429,29.545,49.242,29.545,49.242
		c-15.115-23.047-26.259-36.11-26.259-36.11C18.803,50.765,0.01,91.779,0.01,91.779"/>
	<path fill="#8DC63F" d="M3.296,118.037c20.255-59.84,59.087-91.9,59.087-91.9c20.948,27.43,29.542,49.23,29.542,49.23
		c-15.112-23.028-26.26-36.099-26.26-36.099C22.089,77.014,3.296,118.037,3.296,118.037"/>
	<path fill="#008148" d="M514.82,104.052c0,0.321-0.01,0.655-0.046,0.972c-0.033,0.329-0.099,0.636-0.172,0.933
		c-0.253,0.765-0.657,1.443-1.222,2.074c-0.556,0.607-1.246,1.092-2.024,1.46c-0.78,0.365-1.625,0.546-2.541,0.562
		c-0.839,0-1.581-0.163-2.245-0.461c-0.658-0.319-1.181-0.785-1.56-1.425c-0.378-0.62-0.569-1.411-0.582-2.363
		c0.022-1.402,0.484-2.523,1.392-3.354c0.914-0.816,2.141-1.417,3.707-1.768c1.56-0.354,3.32-0.529,5.294-0.509V104.052z
		 M525.587,95.921c0.009-2.135-0.245-4.137-0.773-6.004c-0.519-1.879-1.385-3.519-2.584-4.943c-1.205-1.426-2.808-2.537-4.83-3.343
		c-2.017-0.807-4.501-1.218-7.482-1.234c-2.173,0.017-4.16,0.183-5.959,0.531c-1.777,0.334-3.342,0.756-4.683,1.243
		c-1.345,0.485-2.44,0.978-3.272,1.455l2.053,7.165c0.793-0.494,1.717-0.946,2.795-1.349c1.059-0.401,2.204-0.733,3.412-0.978
		c1.224-0.245,2.447-0.378,3.677-0.378c1.368,0.017,2.478,0.157,3.331,0.452c0.863,0.289,1.524,0.683,1.987,1.146
		c0.469,0.479,0.785,0.979,0.951,1.53c0.175,0.532,0.257,1.058,0.249,1.557v0.438c-3.174,0-6.058,0.279-8.628,0.829
		c-2.576,0.564-4.787,1.406-6.627,2.528c-1.84,1.133-3.273,2.549-4.258,4.271c-0.989,1.721-1.496,3.743-1.507,6.063
		c0,1.439,0.272,2.819,0.796,4.125c0.515,1.307,1.281,2.479,2.271,3.5c0.995,1.038,2.205,1.84,3.636,2.438
		c1.423,0.605,3.048,0.905,4.868,0.92c2.135,0,4.092-0.374,5.845-1.122c1.747-0.748,3.22-1.846,4.407-3.271h0.224l0.654,3.585
		h10.031c-0.145-0.668-0.25-1.451-0.341-2.366c-0.09-0.915-0.145-1.9-0.199-2.977c-0.035-1.063-0.044-2.157-0.044-3.29V95.921z
		 M457.232,81.279l13.029,35.799h11.135l13.318-35.799h-11.713l-4.615,16.618c-0.397,1.525-0.749,3.003-1.067,4.421
		c-0.322,1.41-0.608,2.836-0.903,4.289h-0.224c-0.271-1.41-0.586-2.841-0.912-4.269c-0.322-1.431-0.692-2.916-1.132-4.441
		l-4.836-16.618H457.232z M435.592,95.115c0.072-0.746,0.242-1.539,0.538-2.367c0.288-0.826,0.706-1.625,1.254-2.357
		c0.552-0.74,1.245-1.337,2.073-1.805c0.849-0.464,1.849-0.707,3.015-0.716c1.271,0.009,2.317,0.26,3.151,0.744
		c0.815,0.484,1.464,1.108,1.927,1.864c0.454,0.745,0.781,1.538,0.96,2.353c0.184,0.83,0.27,1.587,0.257,2.284H435.592z
		 M458.728,102.729c0.081-0.411,0.159-1.009,0.242-1.781c0.069-0.777,0.118-1.646,0.118-2.615c0-1.776-0.18-3.537-0.544-5.256
		c-0.369-1.717-0.953-3.342-1.736-4.857c-0.788-1.511-1.799-2.855-3.06-4.017c-1.258-1.153-2.758-2.054-4.516-2.719
		c-1.757-0.669-3.794-1.002-6.103-1.012c-2.489,0.01-4.711,0.391-6.663,1.107c-1.95,0.733-3.647,1.736-5.076,3.003
		c-1.439,1.27-2.624,2.722-3.563,4.347c-0.932,1.632-1.637,3.354-2.097,5.172c-0.453,1.819-0.689,3.652-0.689,5.477
		c0.015,3.749,0.771,6.997,2.26,9.701c1.491,2.726,3.652,4.82,6.493,6.297c2.847,1.464,6.3,2.214,10.36,2.234
		c2.427,0,4.735-0.183,6.917-0.559c2.186-0.368,4.197-0.936,6.041-1.711l-1.468-7.543c-1.483,0.52-3.034,0.912-4.637,1.165
		c-1.604,0.254-3.349,0.374-5.242,0.374c-1.307,0-2.549-0.135-3.732-0.415c-1.172-0.282-2.234-0.692-3.166-1.257
		c-0.927-0.563-1.665-1.266-2.228-2.124c-0.577-0.851-0.898-1.868-0.979-3.012H458.728z M366.216,117.078h10.838V96.217
		c0-0.48,0.025-0.969,0.082-1.455c0.061-0.491,0.172-0.965,0.355-1.4c0.221-0.597,0.546-1.213,0.998-1.812
		c0.458-0.595,1.039-1.107,1.733-1.513c0.698-0.404,1.513-0.621,2.468-0.632c1.198,0.011,2.166,0.33,2.939,0.964
		c0.768,0.631,1.346,1.513,1.705,2.635c0.368,1.124,0.551,2.442,0.551,3.938v20.136h10.838V96.136c0-0.485,0.036-0.966,0.098-1.48
		c0.073-0.503,0.161-0.957,0.262-1.372c0.277-0.717,0.65-1.361,1.129-1.95c0.477-0.591,1.046-1.053,1.73-1.39
		c0.685-0.354,1.468-0.527,2.346-0.538c1.79,0.011,3.125,0.73,3.977,2.145c0.866,1.421,1.306,3.44,1.295,6.058v19.471h10.834V95.996
		c-0.013-2.69-0.316-5.021-0.913-6.979c-0.612-1.968-1.451-3.577-2.541-4.858c-1.1-1.273-2.364-2.225-3.827-2.831
		c-1.468-0.624-3.063-0.931-4.798-0.931c-1.306,0-2.528,0.164-3.647,0.467c-1.122,0.304-2.174,0.744-3.159,1.291
		c-0.883,0.518-1.709,1.139-2.477,1.865c-0.784,0.735-1.519,1.58-2.211,2.528h-0.15c-0.509-1.257-1.237-2.345-2.178-3.255
		c-0.947-0.917-2.052-1.627-3.349-2.126c-1.282-0.511-2.709-0.754-4.286-0.771c-1.507,0.017-2.86,0.198-4.034,0.561
		c-1.18,0.37-2.213,0.846-3.074,1.419c-0.873,0.574-1.627,1.196-2.236,1.855c-0.608,0.654-1.108,1.284-1.484,1.877h-0.224
		l-0.438-4.829h-9.439c0.071,1.606,0.145,3.354,0.202,5.246c0.052,1.887,0.088,3.942,0.088,6.172V117.078z M342.816,88.383
		c1.254,0.011,2.345,0.312,3.24,0.924c0.895,0.61,1.639,1.414,2.2,2.441c0.575,1.024,0.988,2.161,1.259,3.431
		c0.265,1.251,0.405,2.56,0.405,3.889c0,2.183-0.296,4.089-0.865,5.713c-0.575,1.615-1.38,2.866-2.442,3.762
		c-1.061,0.9-2.322,1.347-3.797,1.361c-1.588-0.023-2.931-0.486-4.013-1.427c-1.086-0.931-1.909-2.191-2.468-3.807
		c-0.558-1.623-0.84-3.453-0.84-5.524c0-1.334,0.133-2.638,0.405-3.907c0.264-1.271,0.695-2.432,1.275-3.454
		c0.586-1.042,1.347-1.857,2.271-2.464C340.375,88.709,341.494,88.394,342.816,88.383 M343.185,80.396
		c-2.908,0.017-5.532,0.457-7.886,1.346c-2.345,0.877-4.358,2.146-6.043,3.804c-1.684,1.662-2.986,3.662-3.889,6.004
		c-0.906,2.331-1.357,4.966-1.37,7.886c0.014,2.897,0.488,5.49,1.431,7.759c0.922,2.284,2.232,4.214,3.901,5.796
		c1.686,1.605,3.639,2.807,5.88,3.641c2.25,0.828,4.676,1.24,7.314,1.255c1.929,0,3.817-0.245,5.649-0.733
		c1.83-0.489,3.55-1.221,5.148-2.221c1.585-0.988,2.987-2.238,4.21-3.771c1.208-1.513,2.146-3.301,2.841-5.366
		c0.685-2.065,1.028-4.396,1.038-7.017c-0.01-2.724-0.447-5.201-1.316-7.444c-0.865-2.244-2.099-4.174-3.707-5.803
		c-1.603-1.642-3.528-2.898-5.75-3.788C348.402,80.863,345.913,80.413,343.185,80.396 M301.695,88.383
		c1.259,0.011,2.349,0.312,3.25,0.924c0.894,0.61,1.636,1.414,2.193,2.441c0.575,1.024,0.991,2.161,1.263,3.431
		c0.265,1.251,0.399,2.56,0.399,3.889c0,2.183-0.293,4.089-0.869,5.713c-0.569,1.615-1.379,2.866-2.434,3.762
		c-1.066,0.9-2.318,1.347-3.803,1.361c-1.579-0.023-2.928-0.486-4.013-1.427c-1.083-0.931-1.903-2.191-2.462-3.807
		c-0.562-1.623-0.84-3.453-0.84-5.524c0-1.334,0.131-2.638,0.398-3.907c0.271-1.271,0.695-2.432,1.277-3.454
		c0.591-1.042,1.35-1.857,2.273-2.464C299.253,88.709,300.385,88.394,301.695,88.383 M302.065,80.396
		c-2.903,0.017-5.523,0.457-7.883,1.346c-2.343,0.877-4.358,2.146-6.039,3.804c-1.689,1.662-2.99,3.662-3.896,6.004
		c-0.904,2.331-1.353,4.966-1.368,7.886c0.015,2.897,0.491,5.49,1.429,7.759c0.928,2.284,2.234,4.214,3.909,5.796
		c1.68,1.605,3.634,2.807,5.884,3.641c2.244,0.828,4.666,1.24,7.304,1.255c1.93,0,3.822-0.245,5.65-0.733
		c1.831-0.489,3.548-1.221,5.148-2.221c1.589-0.988,2.989-2.238,4.214-3.771c1.208-1.513,2.145-3.301,2.848-5.366
		c0.671-2.065,1.018-4.396,1.031-7.017c-0.014-2.724-0.451-5.201-1.316-7.444c-0.868-2.244-2.097-4.174-3.71-5.803
		c-1.602-1.642-3.532-2.898-5.745-3.788C307.29,80.863,304.804,80.413,302.065,80.396 M280.496,106.978
		c-0.767,0.317-1.657,0.598-2.671,0.841c-1.013,0.245-2.098,0.425-3.243,0.56c-1.15,0.14-2.297,0.207-3.458,0.207
		c-3.31-0.011-6.125-0.673-8.469-1.978c-2.352-1.304-4.147-3.158-5.39-5.565c-1.244-2.402-1.867-5.254-1.884-8.563
		c0.017-2.744,0.419-5.139,1.209-7.188c0.81-2.038,1.909-3.747,3.332-5.101c1.43-1.352,3.077-2.365,4.98-3.04
		c1.889-0.67,3.943-1,6.15-1c2.009,0.015,3.809,0.196,5.366,0.566c1.574,0.352,2.906,0.765,4.006,1.266l2.341-8.782
		c-0.673-0.38-1.584-0.736-2.743-1.063c-1.161-0.335-2.54-0.602-4.131-0.81c-1.577-0.215-3.35-0.325-5.279-0.325
		c-3.003,0-5.847,0.359-8.541,1.098c-2.685,0.729-5.15,1.812-7.394,3.241c-2.245,1.443-4.186,3.219-5.822,5.32
		c-1.653,2.105-2.917,4.543-3.819,7.283c-0.903,2.764-1.353,5.827-1.367,9.196c0,3.537,0.55,6.797,1.636,9.797
		c1.1,3.003,2.718,5.613,4.893,7.846c2.161,2.232,4.856,3.969,8.079,5.209c3.221,1.247,6.97,1.87,11.239,1.892
		c1.99-0.015,3.805-0.122,5.469-0.344c1.646-0.214,3.087-0.488,4.293-0.801c1.219-0.331,2.157-0.65,2.834-0.979L280.496,106.978z
		 M208.117,88.383c1.254,0.011,2.344,0.312,3.241,0.924c0.895,0.61,1.638,1.414,2.197,2.441c0.575,1.024,0.988,2.161,1.263,3.431
		c0.263,1.251,0.399,2.56,0.399,3.889c0,2.183-0.293,4.089-0.868,5.713c-0.571,1.615-1.375,2.866-2.437,3.762
		c-1.06,0.9-2.318,1.347-3.796,1.361c-1.59-0.023-2.927-0.486-4.016-1.427c-1.089-0.931-1.904-2.191-2.464-3.807
		c-0.561-1.623-0.841-3.453-0.841-5.524c0-1.334,0.131-2.638,0.402-3.907c0.268-1.271,0.695-2.432,1.278-3.454
		c0.586-1.042,1.345-1.857,2.272-2.464C205.675,88.709,206.8,88.394,208.117,88.383 M208.482,80.396
		c-2.902,0.017-5.53,0.457-7.882,1.346c-2.345,0.877-4.36,2.146-6.041,3.804c-1.686,1.662-2.989,3.662-3.894,6.004
		c-0.905,2.331-1.359,4.966-1.365,7.886c0.006,2.897,0.485,5.49,1.426,7.759c0.93,2.284,2.234,4.214,3.905,5.796
		c1.681,1.605,3.638,2.807,5.881,3.641c2.242,0.828,4.676,1.24,7.308,1.255c1.929,0,3.819-0.245,5.652-0.733
		c1.832-0.489,3.55-1.221,5.147-2.221c1.588-0.988,2.992-2.238,4.214-3.771c1.206-1.513,2.143-3.301,2.844-5.366
		c0.679-2.065,1.022-4.396,1.034-7.017c-0.011-2.724-0.453-5.201-1.318-7.444c-0.868-2.244-2.096-4.174-3.713-5.803
		c-1.596-1.642-3.519-2.898-5.743-3.788C213.705,80.863,211.212,80.413,208.482,80.396 M159.827,96.802
		c0-0.331,0.013-0.671,0.05-1.014c0.036-0.342,0.094-0.673,0.171-0.965c0.253-1.113,0.706-2.09,1.353-2.925
		c0.645-0.845,1.429-1.508,2.341-1.981c0.919-0.487,1.902-0.722,2.967-0.733c1.659,0.012,3.047,0.467,4.173,1.332
		c1.11,0.867,1.95,2.064,2.52,3.563c0.57,1.5,0.849,3.207,0.849,5.139c0,2.032-0.308,3.805-0.921,5.314
		c-0.605,1.521-1.485,2.683-2.629,3.519c-1.139,0.826-2.516,1.261-4.136,1.269c-1.092-0.008-2.066-0.245-2.954-0.696
		c-0.89-0.462-1.647-1.085-2.271-1.88c-0.609-0.777-1.039-1.683-1.292-2.691c-0.077-0.371-0.135-0.736-0.171-1.128
		c-0.037-0.38-0.05-0.777-0.05-1.219V96.802z M148.697,130.579h11.13v-16.791h0.144c0.536,0.792,1.273,1.487,2.175,2.097
		c0.901,0.619,1.951,1.1,3.147,1.466c1.205,0.354,2.539,0.521,3.974,0.535c1.617,0,3.199-0.245,4.762-0.746
		c1.563-0.497,3.025-1.245,4.405-2.255c1.393-1.003,2.613-2.269,3.676-3.799c1.046-1.524,1.889-3.327,2.487-5.378
		c0.61-2.064,0.917-4.392,0.924-7.004c-0.007-2.855-0.428-5.421-1.217-7.661c-0.793-2.264-1.893-4.166-3.27-5.74
		c-1.39-1.576-2.96-2.768-4.747-3.583c-1.77-0.832-3.646-1.247-5.622-1.247c-2.615,0.01-4.921,0.501-6.933,1.489
		c-2.013,0.988-3.675,2.417-5.002,4.294h-0.149l-0.509-4.977h-9.67c0.079,1.685,0.149,3.511,0.21,5.497
		c0.048,2.003,0.086,4.166,0.086,6.507V130.579z M142.581,81.279h-11.133v21.302c0,0.954-0.149,1.761-0.439,2.42
		c-0.224,0.597-0.576,1.192-1.05,1.78c-0.485,0.6-1.094,1.084-1.857,1.488c-0.742,0.389-1.635,0.598-2.66,0.607
		c-1.317-0.01-2.392-0.335-3.218-1.012c-0.829-0.656-1.443-1.611-1.83-2.855c-0.392-1.243-0.586-2.733-0.586-4.478V81.279h-11.132
		v21.011c0.026,3.676,0.564,6.66,1.635,8.955c1.076,2.303,2.555,3.983,4.445,5.055c1.879,1.071,4.049,1.597,6.515,1.586
		c1.612-0.015,3.039-0.225,4.269-0.611c1.246-0.391,2.32-0.885,3.223-1.498c0.914-0.595,1.67-1.249,2.285-1.902
		c0.608-0.672,1.083-1.284,1.423-1.844h0.221l0.512,5.048h9.665c-0.069-1.502-0.145-3.204-0.195-5.113
		c-0.058-1.913-0.092-4.038-0.092-6.379V81.279z M84.038,117.078h11.127V98.92c0-0.439,0.011-0.875,0.047-1.299
		c0.039-0.425,0.097-0.819,0.173-1.191c0.376-1.739,1.23-3.109,2.539-4.105c1.315-1.006,3.012-1.518,5.074-1.533
		c0.612,0,1.161,0.039,1.634,0.09c0.478,0.062,0.941,0.134,1.365,0.205V80.619c-0.386-0.072-0.743-0.137-1.083-0.17
		c-0.342-0.036-0.754-0.053-1.255-0.053c-0.891,0-1.795,0.138-2.735,0.428c-0.938,0.284-1.843,0.733-2.735,1.33
		c-0.877,0.601-1.681,1.383-2.401,2.327c-0.728,0.934-1.33,2.066-1.794,3.389h-0.29l-0.441-6.591h-9.519
		c0.074,1.01,0.135,2.096,0.173,3.238c0.048,1.166,0.074,2.433,0.096,3.84c0.013,1.387,0.027,2.961,0.027,4.707V117.078z
		 M78.279,88.891H59.905v8.717h7.615v10.319c-0.449,0.198-1.159,0.343-2.097,0.466c-0.954,0.125-2.062,0.192-3.324,0.192
		c-2.291,0-4.39-0.362-6.294-1.073c-1.901-0.722-3.548-1.771-4.93-3.145c-1.39-1.382-2.467-3.067-3.218-5.065
		c-0.756-1.991-1.137-4.26-1.15-6.822c0.014-2.698,0.427-5.051,1.257-7.064c0.817-2.016,1.976-3.673,3.452-5.002
		c1.488-1.331,3.223-2.322,5.214-2.982c1.976-0.652,4.145-0.983,6.475-0.983c1.798,0,3.394,0.096,4.77,0.269
		c1.385,0.178,2.616,0.434,3.687,0.755c1.087,0.318,2.077,0.684,2.965,1.109l2.343-9.093c-0.804-0.354-1.88-0.689-3.205-1.044
		c-1.337-0.344-2.87-0.642-4.639-0.868c-1.771-0.222-3.71-0.347-5.846-0.36c-4.067,0-7.812,0.576-11.211,1.728
		c-3.419,1.145-6.395,2.814-8.921,5.028c-2.528,2.204-4.494,4.9-5.895,8.1c-1.401,3.207-2.124,6.868-2.163,10.993
		c0,2.419,0.273,4.725,0.818,6.903c0.539,2.184,1.316,4.212,2.361,6.084c1.02,1.852,2.292,3.51,3.779,4.951
		c2.259,2.156,5.042,3.807,8.358,4.916c3.31,1.116,7.212,1.673,11.7,1.673c2.2-0.011,4.336-0.17,6.409-0.462
		c2.077-0.295,3.978-0.648,5.71-1.075c1.749-0.428,3.196-0.843,4.354-1.245V88.891z"/>
</g>
</svg>
