<?xml version="1.0" encoding="utf-8"?>
<!-- Generator: Adobe Illustrator 25.0.0, SVG Export Plug-In . SVG Version: 6.00 Build 0)  -->
<!DOCTYPE svg [
	<!ENTITY ns_extend "http://ns.adobe.com/Extensibility/1.0/">
	<!ENTITY ns_ai "http://ns.adobe.com/AdobeIllustrator/10.0/">
	<!ENTITY ns_graphs "http://ns.adobe.com/Graphs/1.0/">
	<!ENTITY ns_vars "http://ns.adobe.com/Variables/1.0/">
	<!ENTITY ns_imrep "http://ns.adobe.com/ImageReplacement/1.0/">
	<!ENTITY ns_sfw "http://ns.adobe.com/SaveForWeb/1.0/">
	<!ENTITY ns_custom "http://ns.adobe.com/GenericCustomNamespace/1.0/">
	<!ENTITY ns_adobe_xpath "http://ns.adobe.com/XPath/1.0/">
]>
<svg version="1.2" baseProfile="tiny" id="Capa_1" xmlns:x="&ns_extend;" xmlns:i="&ns_ai;" xmlns:graph="&ns_graphs;"
	 xmlns="http://www.w3.org/2000/svg" xmlns:xlink="http://www.w3.org/1999/xlink" x="0px" y="0px" viewBox="0 0 1164.943 547.542"
	 overflow="visible" xml:space="preserve">
<metadata>
	<sfw  xmlns="&ns_sfw;">
		<slices></slices>
		<sliceSourceBounds  bottomLeftOrigin="true" height="496.425" width="1163.222" x="1535.13" y="-524.565"></sliceSourceBounds>
	</sfw>
</metadata>
<rect x="21.222" y="32.453" fill="#FFFFFF" width="1122.281" height="490.112"/>
<g>
	<g>
		<path fill="#E7E8E8" d="M130.836,222.812c-1.932-7.62-1.932-7.624-9.236-7.695c-1.636-0.016-3.299,0.19-4.903-0.037
			c-5.783-0.818-12.496,2.683-17.169-3.746c-0.46-0.633-2.487-0.137-3.787-0.145c-1.963-0.011-4.839,0.83-5.732-0.147
			c-3.81-4.173-7.462-0.993-10.128,0.515c-6.706,3.793-12.86,8.569-19.173,13.04c-0.676,0.479-1.285,1.524-1.335,2.342
			c-0.34,5.59-4.241,8.868-7.673,12.572c-3.146,3.396-5.91,7.145-8.594,10.433c3.171,3.185,5.636,5.661,8.337,8.374
			c1.168,0,2.809,0.084,4.439-0.015c6.842-0.412,13.436-0.127,18.176,5.906c0,0,8.088,0.245,8.179,0.248
			c0.607,2.44,1.92,4.98,1.704,7.383c-0.567,6.318-0.762,6.323,3.854,10.093c1.723,1.407,3.54,2.882,2.963,5.64
			c-0.623,2.98,1.29,4.4,3.388,6.179c6.132,5.203,13.287,9.95,17.422,16.524c3.424,5.444,7.247,10.185,11.922,15.235
			c3.03-0.732,6.296-1.522,8.994-2.174c2.597,4.646,5.123,9.166,7.562,13.531c4.201,0,7.822-0.33,11.347,0.108
			c2.65,0.329,5.896,0.93,7.618,2.662c4.267,4.293,9.166,7.941,12.369,13.424c4.55,7.789,15.252,15.912,22.998,16.965
			c4.966,0.675,8.634,2.567,12.634,5.295c7.474,5.097,14.518,10.725,21.775,16.086c3.937,2.908,8.123,6.588,13.054,6.127
			c8.823-0.824,16.68,2.329,24.795,4.43c2.891,0.749,7.986-0.156,6.9,5.966c-0.179,1.01,1.66,2.648,2.88,3.589
			c5.941,4.584,12.261,5.306,19.3,2.283c6.264-2.69,12.631-5.591,20.046-4.05c4.026,4.119,3.538,4.224,4.877,10.421
			c1.288,5.959,2.067,12.482,8.092,16.266c3.91,2.456,7.439,6.212,11.664,7.25c3.244,0.797,6.729,5.925,10.707,1.183
			c3.001,0.655,6.145,0.962,8.941,2.114c1.348,0.556,2.474,2.574,2.943,4.155c1.131,3.817,2.35,7.736,2.568,11.668
			c0.442,7.937,0.527,15.807,1.747,23.773c1.154,7.535,4.699,12.111,10.976,14.898c3.298,1.464,7.253,1.369,10.809,2.349
			c7.917,2.182,16.502,2.14,23.658,6.838c2.174,1.427,3.794,1.075,6.087,0.021c4.383-2.013,8.989-3.843,13.694-4.737
			c2.607-0.495,3.139-1.641,4.479-3.442c1.887-2.537,1.773-5.179,1.168-7.329c-2.139-7.6-2.078-15.911-6.705-22.712
			c-1.831-2.691-1.136-4.425,0.652-6.798c3.842-5.098,3.444-5.81-2.21-9.039c-7.134-4.073-13.181-9.611-19.277-15.019
			c-2.663-2.362-2.363-4.57-0.008-7.342c3.49-4.108,6.987-8.213,10.403-12.383c2.385-2.91,4.082-6.803,7.072-8.71
			c6.088-3.882,8.844-10.244,11.193-15.945c3.565-8.651,8.779-16.673,10.938-26.663c-3.651-2.335-7.535-4.819-11.816-7.557
			c-0.706-3.635,0.267-7.94-1.697-12.365c-1.248-2.811,0.48-7.345,1.848-10.711c0.526-1.294,3.735-1.549,5.752-2.176
			c4.946-1.538,9.887-3.199,14.059-6.31c4.281-3.191,4.139-3.457,1.585-9.489c-0.224-0.529,0.036-1.263,0.101-2.437
			c1.134-0.107,2.34-0.326,3.545-0.317c9.689,0.072,11.986-6.022,9.672-12.314c-1.809-4.921,0.288-10.031-1.843-13.906
			c-2.652-4.822-0.799-9.456-1.83-13.913c2.229-2.229,4.194-4.449,6.428-6.354c2.116-1.805,4.589-3.185,6.772-4.92
			c3.46-2.75,3.685-7.132,4.315-10.886c0.287-1.711-2.636-3.974-4.13-5.967c-1.294-1.726-2.631-3.287-3.702-5.313
			c-2.857-5.403-6.864-10.198-10.226-14.967c-5.141,1.511-9.524,3.881-13.883,3.837c-7.192-0.072-11.826,3.596-15.841,8.1
			c-6.676,0-6.673-0.007-12.995-3.119c-0.398-0.196-0.952-0.292-1.374-0.189c-2.669,0.648-5.372,1.214-7.964,2.1
			c-2.568,0.878-5.003,2.915-7.522,2.958c-2.941,0.051-5.747-1.708-8.974-2.019c-3.336-0.322-6.466-2.787-10.116-4.519
			c1.823-3.112,4.457-5.566,4.297-7.822c-0.232-3.276,3.759-5.569,1.653-8.644c-1.878-2.742-1.834-5.519-0.337-7.962
			c2.215-3.613,0.852-9.263,6.677-10.989c1.744-0.517,3.819-3.145,4.007-4.983c0.351-3.431,1.866-4.628,4.801-6.038
			c4.204-2.019,4.767-7.055,1.46-10.347c-2.648-2.636-5.669-5.036-8.885-6.93c-5.625-3.313-10.838-6.998-15.157-11.524
			c0.982-2.063,1.67-3.414,2.272-4.802c0.601-1.386,0.909-2.941,1.704-4.195c3.469-5.473,3.325-8.895-1.813-12.044
			c-4.61-2.826-9.769-4.797-14.786-6.909c-6.947-2.925-13.647-2.98-20.603,0.835c-3.33,1.826-7.229,3.624-11.471,3.067
			c-2.033-0.267-3.665,0.201-5.118,1.93c-2.863,3.406-6.808,4.282-11.093,3.954c-2.587-0.198-4.742,0.956-7.116,1.733
			c-4.06,1.329-8.687,4.098-12.765,2.021c-7.378-3.759-16.233-3.346-22.816-8.726c-1.356-7.984-3.855-15.332-9.726-21.521
			c-3.324-3.504-5.766-7.985-8.018-12.331c-2.5-4.825-3.471-9.859-0.312-15.131c1.355-2.26,2.923-6.139,1.924-7.743
			c-3.295-5.288-3.535-11.093-4.017-17.776c-4.11,2.572-7.382,4.62-10.761,6.735c-3.319-2.542-6.538-5.007-9.63-7.375
			c-3.024,2.003-8.108,2.75-6.783,8.473c-2.274,1.62-4.377,3.643-6.887,4.706c-1.478,0.626-3.518,0.517-5.36-1.078
			c-1.982-1.716-5.152-2.031-7.211-3.693c-3.065-2.474-6.221-2.015-9.32-0.97c-0.669-2.438-1.179-4.295-2.038-7.426
			c-5.84,5.841-11.398,10.118-15.158,15.623c-2.38,3.484-4.586,5.951-8.467,7.058c-2.565-2.565-4.955-5.295-7.699-7.604
			c-2.79-2.348-5.93-4.281-8.521-6.115c-6.346,3.717-2.66,9.408-4.773,14.668c-5.024,0.659-10.559,1.384-16.103,2.111
			c-0.802,1.328-1.94,2.809-2.627,4.476c-0.552,1.34-0.559,2.905-0.808,4.37c-0.349-0.043-0.699-0.086-1.048-0.129
			c-0.139-3.113-0.279-6.226-0.521-11.64c-4.19,7.525-5.044,13.589-5.949,19.548c-5.256,0.89-7.236,5.199-8.859,9.03
			c-1.013,2.39,0.16,5.707,0.388,9.157c-5.168,2.308-7.714,7.729-10.109,12.367c1.246,2.317,3.468,5.54,3.088,5.884
			c-2.921,2.64-0.177,3.637,1.061,5.114c0.817-0.571,1.623-1.134,3.05-2.13c-0.796,3.61-1.887,6.251-1.821,8.863
			c0.077,3.016,2.275,6.314,1.542,8.926c-0.852,3.035-1.939,5.888-1.664,9.083c0.077,0.9,0.297,1.789,0.485,2.88
			c4.793,0.238,5.624-5.323,10.083-6.114c3.117,2.887,6.066,6.479,4.759,10.996c-0.582,2.012-2.369,4.165-1.232,5.991
			c1.025,1.646,3.43,2.462,5.277,3.558c1.302,0.773,2.688,1.403,4.539,2.355c-0.756,2.509-2.242,5.127-2.164,7.699
			c0.131,4.358-1.343,7.837-3.524,11.387c-1.24,2.019-1.932,4.461-2.475,6.804C136.99,222.542,134.474,223.504,130.836,222.812z"/>
		<path fill="#E7E8E8" d="M219.174,45.716c2.543,0.003,5.086,0.003,7.58,0.003c0.785,3.624,0.785,3.624,4.376,8.043
			c3.728,4.588,4.333,9.994,1.326,14.563c-0.784,1.19-2.262,2.194-3.63,2.634c-0.913,0.293-2.511-0.239-3.259-0.963
			c-3.625-3.506-7.587-6.84-10.436-10.927c-3.284-4.712-2.695-6.409,0.953-10.256C217.086,47.755,218.142,46.746,219.174,45.716z"/>
		<path fill="#92C048" d="M232.117,357.003l42.505-13.149c0,0-34.838-7.593-68.253-14.19c-0.067,0.018-0.13,0.047-0.2,0.057
			c-0.026,0.004-0.051,0.015-0.076,0.023c-0.089,0-0.178,0-0.267,0c-0.021-0.008-0.041-0.019-0.062-0.022
			c-0.22-0.036-0.391-0.145-0.543-0.284c-5.297-1.043-10.549-2.059-15.609-3.013c-23.902-4.506-53.955-7.004-72.465-8.217
			c1.931,2.44,4.011,4.836,6.297,7.305c3.03-0.732,6.296-1.522,8.994-2.174c1.464,2.62,2.9,5.188,4.316,7.723
			c5.489,1.099,10.954,2.232,15.857,3.313C173.406,338.961,232.117,357.003,232.117,357.003z"/>
		<path fill="#92C048" d="M185.638,356.697c-1.903-1.015-8.437-3.187-15.432-5.382c0.393,0.565,0.775,1.142,1.13,1.748
			c4.379,7.497,14.451,15.285,22.108,16.798l12.377-4.602C205.82,365.259,190.224,359.143,185.638,356.697z"/>
		<path fill="#92C048" d="M422.055,325.291c-0.011,0.384,0.049,0.772,0.102,1.154c0.021,0.155-0.014,0.242-0.141,0.319
			c-0.493,0.3-1.007,0.548-1.586,0.63c-0.047,0.007-0.092,0.028-0.138,0.043c-0.161,0-0.323,0-0.484,0
			c-0.038-0.014-0.074-0.034-0.113-0.04c-0.594-0.098-1.041-0.42-1.368-0.912c-0.129-0.194-0.228-0.408-0.342-0.612
			c-0.077-0.138-0.071-0.269-0.005-0.414c0.194-0.427,0.38-0.858,0.571-1.286c-13.275,1.311-26.654,2.598-36.598,3.475
			c-20.794,1.835-91.736,19.876-120.174,29.356c-13.315,4.438-36.532,13.703-52.276,20.112c6.538,4.612,12.813,9.547,19.239,14.295
			c3.937,2.908,8.123,6.588,13.054,6.127c1.417-0.132,2.808-0.153,4.18-0.101c19.703-9.723,50.209-23.942,75.127-31.87
			c40.364-12.843,71.554-21.405,92.654-26.604c13.869-3.417,34.87-7.758,47.636-10.333c0.769-1.384,0.115-2.903-1.476-6.663
			c-0.191-0.452-0.034-1.073,0.057-1.971c-8.771,0.9-23.014,2.352-37.798,3.819C422.119,324.304,422.069,324.798,422.055,325.291z"
			/>
		<path fill="#92C048" d="M275.294,410.625c0.37,0.332,0.745,0.641,1.077,0.896c5.94,4.584,12.261,5.306,19.3,2.283
			c6.264-2.69,12.631-5.591,20.046-4.05c4.026,4.119,3.538,4.224,4.877,10.421c0.443,2.051,0.83,4.167,1.388,6.216
			c8.319-5.9,18.587-12.914,26.03-17.1c12.742-7.167,66.959-38.528,90.042-50.077c-0.067-2.691-0.066-5.599-1.381-8.563
			c-0.864-1.947-0.301-4.719,0.581-7.359c-18.171,6.353-58.403,20.506-65.696,23.8C363.558,370.706,300.918,397.829,275.294,410.625
			z"/>
		<path fill="#92C048" d="M339.315,443.354c0.342,0.122,0.682,0.252,1.034,0.339c3.244,0.797,6.73,5.925,10.707,1.183
			c3.001,0.655,6.146,0.962,8.941,2.114c1.348,0.556,2.474,2.574,2.943,4.155c1.131,3.817,2.35,7.736,2.568,11.668
			c0.131,2.359,0.232,4.712,0.34,7.063l34.147-34.591l35.872-30.777c1.339-2.386,2.398-4.885,3.38-7.27
			c3.565-8.652,8.779-16.673,10.938-26.663c-1.525-0.975-3.102-1.984-4.72-3.019c-19.026,12.968-73.313,50.009-74.826,51.522
			C369.525,420.192,352.508,433.261,339.315,443.354z"/>
		<path fill="#92C048" d="M378.231,501.483c3.298,1.464,7.253,1.369,10.809,2.349c7.917,2.182,16.502,2.14,23.658,6.838
			c2.174,1.427,3.794,1.075,6.087,0.021c4.383-2.013,8.989-3.843,13.694-4.737c2.607-0.495,3.139-1.641,4.478-3.442
			c1.887-2.537,1.773-5.179,1.168-7.329c-2.139-7.6-2.078-15.911-6.705-22.712c-1.831-2.691-1.136-4.425,0.652-6.798
			c3.842-5.098,3.445-5.81-2.21-9.039c-4.716-2.693-8.954-6.029-13.049-9.542l-42.726,51.987
			C375.308,500.001,376.686,500.797,378.231,501.483z"/>
		<path fill="#92C048" d="M422.198,323.531c0.198-1.531,0.506-3.042,0.887-4.536c0.452-1.775,0.924-3.546,1.422-5.309
			c0.678-2.4,1.435-4.777,2.235-7.14c0.097-0.287,0.117-0.293,0.406-0.321c1.003-0.1,2.009-0.184,3.008-0.315
			c1.537-0.202,3.059-0.492,4.566-0.86c2.836-0.692,5.569-1.653,8.125-3.084c1.4-0.784,2.704-1.704,3.883-2.793
			c1.26-1.165,2.319-2.49,3.146-3.997c0.78-1.421,1.302-2.931,1.615-4.519c0.239-1.21,0.309-2.431,0.296-3.661
			c-0.008-0.824-0.024-1.646-0.123-2.465c-0.171-1.421-0.448-2.821-0.814-4.204c-0.068-0.257-0.146-0.512-0.216-0.769
			c-0.025-0.093-0.08-0.131-0.164-0.133c0.016-0.004,0.034-0.016,0.049-0.018c-0.355,0-0.761-0.116-1.116-0.116
			c-0.103,0.014-0.206,0.035-0.309,0.04c-0.942,0.051-1.887,0.075-2.827,0.153c-1.125,0.093-2.25,0.207-3.369,0.357
			c-1.962,0.263-3.9,0.653-5.807,1.186c-2.293,0.641-4.512,1.47-6.597,2.631c-1.324,0.737-2.564,1.593-3.683,2.617
			c-1.5,1.373-2.708,2.963-3.541,4.827c-0.78,1.746-1.189,3.579-1.276,5.485c-0.027,0.596-0.022,1.194-0.004,1.79
			c0.016,0.523,0.052,1.048,0.111,1.568c0.181,1.592,0.193,1.97,0.642,3.507c0.026,0.091,0.798-13.552,14.46-16.219
			c-11.45,7.741-13.023,19.376-13.1,19.952c-0.207,1.547-0.542,3.069-0.979,4.565c-0.393,1.348-0.807,2.691-1.257,4.02
			c-0.416,1.23-0.894,2.44-1.344,3.659c-0.027,0.072-0.061,0.142-0.118,0.271c-0.063-0.142-0.104-0.226-0.137-0.312
			c-0.268-0.71-0.544-1.417-0.8-2.131c-0.642-1.787-1.214-3.594-1.573-5.462c-0.139-0.722-0.282-1.449-0.219-2.187
			c0.458-5.354-6.276-12.673-9.301-13.429c10.563,1.659,10.15,12.543,10.288,11.977c0.115-0.472,0.235-0.991,0.297-1.329
			c0.248-1.349,0.299-2.71,0.108-4.072c-0.363-2.581-1.583-4.679-3.59-6.328c-1.177-0.967-2.494-1.694-3.899-2.268
			c-2.525-1.032-5.168-1.561-7.87-1.834c-0.481-0.049-0.964-0.086-1.447-0.113c-0.668-0.037-2.358-0.01-2.295,0.015
			c-0.022,0.064-0.05,0.13-0.067,0.198c-0.137,0.548-0.283,1.093-0.404,1.644c-0.238,1.083-0.351,2.183-0.368,3.289
			c-0.012,0.742,0.067,1.482,0.197,2.214c0.479,2.718,1.866,4.881,4.024,6.571c1.478,1.157,3.141,1.965,4.904,2.581
			c1.274,0.446,2.579,0.778,3.906,1.023c1.159,0.213,2.324,0.384,3.501,0.451c0.181,0.01,0.272,0.085,0.326,0.257
			c0.204,0.646,0.434,1.284,0.628,1.934c0.496,1.662,0.994,3.324,1.459,4.994c0.436,1.571,0.798,3.16,0.996,4.782
			c0.052,0.43,0.039,0.835-0.163,1.243c-0.124,0.252-0.238,0.509-0.352,0.766c1.21-0.119,2.418-0.239,3.624-0.359
			C422.185,323.719,422.186,323.625,422.198,323.531z"/>
		<path fill="#92C048" d="M207.043,329.373c0.07-0.043,0.089-0.091,0.078-0.176c-0.029-0.211-0.062-0.424-0.056-0.636
			c0.009-0.324,0.037-0.648,0.079-0.969c0.109-0.843,0.279-1.676,0.488-2.499c0.249-0.978,0.509-1.953,0.784-2.924
			c0.373-1.322,0.791-2.632,1.231-3.933c0.054-0.158,0.064-0.161,0.224-0.177c0.553-0.055,1.106-0.101,1.657-0.174
			c0.847-0.111,1.685-0.271,2.515-0.474c1.562-0.381,3.068-0.91,4.476-1.699c0.771-0.432,1.489-0.939,2.139-1.539
			c0.694-0.642,1.277-1.372,1.733-2.202c0.43-0.783,0.717-1.615,0.89-2.489c0.132-0.667,0.17-1.339,0.163-2.017
			c-0.005-0.454-0.013-0.907-0.068-1.358c-0.094-0.783-0.247-1.554-0.448-2.316c-0.038-0.142-0.08-0.282-0.119-0.424
			c-0.014-0.051-0.044-0.072-0.09-0.073c0.009-0.002,0.019-0.009,0.027-0.01c-0.196,0-0.419-0.064-0.615-0.064
			c-0.057,0.008-0.113,0.019-0.17,0.022c-0.519,0.028-1.04,0.041-1.557,0.084c-0.62,0.051-1.239,0.114-1.856,0.196
			c-1.081,0.145-2.149,0.36-3.199,0.653c-1.263,0.353-2.485,0.81-3.634,1.449c-0.73,0.406-1.413,0.878-2.029,1.441
			c-0.827,0.756-1.492,1.632-1.951,2.659c-0.43,0.962-0.656,1.972-0.703,3.022c-0.015,0.328-0.012,0.658-0.002,0.986
			c0.009,0.288,0.029,0.577,0.061,0.864c0.1,0.877,0.106,1.085,0.354,1.932c0.015,0.05,0.44-7.466,7.966-8.935
			c-6.308,4.265-7.174,10.674-7.217,10.992c-0.114,0.852-0.299,1.69-0.54,2.515c-0.217,0.742-0.444,1.482-0.693,2.215
			c-0.23,0.678-0.492,1.344-0.741,2.016c-0.015,0.04-0.034,0.078-0.065,0.15c-0.034-0.078-0.057-0.124-0.075-0.172
			c-0.148-0.391-0.299-0.781-0.441-1.174c-0.354-0.984-0.669-1.98-0.866-3.009c-0.077-0.398-0.155-0.798-0.121-1.205
			c0.252-2.95-3.457-6.982-5.124-7.398c5.819,0.914,5.591,6.91,5.667,6.598c0.063-0.26,0.13-0.546,0.164-0.732
			c0.137-0.743,0.165-1.493,0.059-2.243c-0.2-1.422-0.872-2.578-1.978-3.486c-0.648-0.533-1.374-0.933-2.148-1.249
			c-1.391-0.568-2.847-0.86-4.336-1.011c-0.265-0.027-0.531-0.047-0.797-0.062c-0.368-0.02-1.299-0.006-1.264,0.008
			c-0.012,0.035-0.027,0.071-0.037,0.109c-0.075,0.302-0.156,0.602-0.223,0.906c-0.131,0.596-0.193,1.202-0.203,1.812
			c-0.006,0.409,0.037,0.816,0.108,1.22c0.264,1.497,1.028,2.689,2.217,3.62c0.814,0.637,1.73,1.082,2.702,1.422
			c0.702,0.245,1.421,0.429,2.152,0.563c0.638,0.118,1.28,0.211,1.928,0.249c0.1,0.006,0.15,0.047,0.18,0.142
			c0.112,0.356,0.239,0.708,0.346,1.065c0.273,0.916,0.547,1.831,0.804,2.751c0.241,0.865,0.439,1.741,0.548,2.634
			c0.029,0.237,0.021,0.46-0.089,0.685c-0.183,0.37-0.338,0.754-0.508,1.131c-0.037,0.08-0.04,0.152,0.003,0.228
			c0.063,0.112,0.117,0.23,0.188,0.337c0.059,0.089,0.137,0.151,0.211,0.218c0.382,0.075,0.765,0.151,1.148,0.226
			C206.607,329.599,206.831,329.502,207.043,329.373z"/>
		<path d="M205.764,329.721c0.021,0.004,0.042,0.015,0.062,0.022c0.089,0,0.178,0,0.267,0c0.025-0.008,0.05-0.02,0.076-0.023
			c0.07-0.01,0.133-0.038,0.2-0.057c-0.383-0.076-0.765-0.151-1.148-0.226C205.373,329.576,205.544,329.685,205.764,329.721z"/>
		<path fill="#92C048" d="M417.985,325.873c0.114,0.204,0.213,0.418,0.342,0.612c0.327,0.493,0.774,0.814,1.368,0.912
			c0.039,0.006,0.075,0.026,0.113,0.04c0.161,0,0.323,0,0.484,0c0.046-0.015,0.091-0.036,0.138-0.043
			c0.58-0.082,1.093-0.33,1.586-0.63c0.127-0.077,0.162-0.165,0.141-0.319c-0.053-0.383-0.113-0.77-0.102-1.154
			c0.014-0.493,0.064-0.987,0.12-1.478c-1.205,0.12-2.414,0.239-3.624,0.359c-0.191,0.429-0.377,0.859-0.571,1.286
			C417.914,325.604,417.908,325.735,417.985,325.873z"/>
		<g>
			<path fill="#145F3E" d="M331.784,382.296c-0.469,0.134-0.778,0.223-1.359,0.39c0.101-0.949,0.071-1.786,0.291-2.552
				c2.178-4.706,1.992-9.255,0.92-13.736c-0.159-1.675-0.504-3.334-0.634-5.011c-0.187-2.416,0.424-4.72,1.167-7
				c0.651-1.999,0.557-2.243-1.268-3.24c-2.734-1.493-5.525-2.854-8.933-3.191c0.342,1.55,0.607,3.011,0.991,4.44
				c1.097,4.076,2.235,8.134,1.828,12.435c-0.248,2.627-0.938,5.362-1.083,7.997c-0.129,2.338,0.894,4.473,1.65,6.681
				c0.532,1.554,1.019,3.14,1.321,4.75c0.501,2.664-0.703,4.095-3.409,4.147c-1.239,0.024-2.494-0.063-3.721-0.245
				c-1.47-0.218-1.806-0.709-1.583-2.181c0.18-1.187,0.484-2.355,0.745-3.585c-1.267,0.133-1.222-0.666-1.065-1.46
				c0.319-1.614,0.705-3.215,1.033-4.827c0.727-3.573,0.891-7.12,0.757-10.706c-0.186-4.981-2.809-9.499-4.44-14.079
				c-0.444-1.248-1.28-2.059-2.623-2.192c-1.957-0.193-3.919,1.283-5.97,1.119c-0.157,2.021-0.309,2.233-0.437,4.052
				c-0.32,4.541-0.653,9.098,0.384,13.581c0.39,1.687,1.154,3.301,1.863,4.898c0.847,1.907,1.83,3.753,2.73,5.637
				c0.236,0.493,0.412,1.02,0.566,1.546c0.668,2.286,0.243,2.963-2.112,3.159c-1.196,0.099-2.408,0.048-3.611,0.013
				c-1.033-0.03-1.596-0.597-1.703-1.641c-0.086-0.837-0.18-1.678-0.353-2.499c-0.1-0.473-0.363-0.912-0.605-1.49
				c-0.622,0.475-1.1,0.839-1.788,1.364c-0.048-0.59-0.113-0.996-0.108-1.401c0.032-2.568,0.637-5.241,0.475-7.795
				c-0.122-1.913-1.012-3.728-1.51-5.593c-0.849-3.18-2.053-6.276-1.908-9.653c0.077-1.795,0.072-3.594,0.15-5.389
				c0.102-2.333-0.652-4.205-2.643-5.564c-1.261-0.861-2.42-1.871-3.917-3.043c-0.485,2.144-1.126,4.002-1.294,5.902
				c-0.483,5.464-2.186,10.713-3.546,16.006c-0.934,3.635-0.364,7.398-0.035,11.107c0.197,2.228,0.327,4.462,0.468,6.694
				c0.085,1.344-0.226,1.945-1.53,2.089c-1.881,0.207-3.791,0.193-5.688,0.181c-0.885-0.006-1.183-0.684-1.039-1.474
				c0.601-3.305,0.884-6.723,1.946-9.876c1.444-4.288,2.442-8.552,2.412-13.091c-0.029-4.399,1.32-9.748,1.174-14.139
				c-0.216-6.52-2.485-11.694-2.937-18.203c-0.445-6.406-1.305-12.807-0.383-19.211c0.229-1.59,0.994-3.681,1.405-5.235
				c0.568-2.152,3.265-3.14,4.98-4.469c0.811-0.629,2.287-2.222,3.124-2.815c1.13-1.338,1.192-1.236,1.909-2.736
				c1.116-2.338,2.657-2.428,5.263-2.172c5.976,0.587,6.727,2.997,10.773,3.637c2.302,0.364,5.343-0.448,7.662-0.638
				c2.874-0.236,3.294-1.41,3.026-4.353c-0.046-0.501-0.153-1.428-0.242-1.879c-1.462,0.115-2.872,0.711-4.25,0.752
				c-7.501-1.907-7.642-7.665-7.12-7.994c1.569-0.99,3.242-1.889,4.439-1.775c2.332,0.222,3.923,0.357,6.413,1.913
				c0.394,0.042,0.785-0.653,1.271-1.056c0.488-0.405,5.378-5.803,11.592-4.281c3.931,0.634,8.918,3.885,9.074,5.959
				c0.999-0.278,2.159-1.022,3.09-1.286c2.484-0.703,4.852-0.578,7.045,0.939c1.98,1.37,2.119,2.609,0.409,4.263
				c-2.956,2.86-4.868,4.508-9.099,4.476c-1.185-0.009-1.822-0.925-2.172-0.925c-0.035,0.361-0.233,1.277-0.225,1.622
				c0.071,2.877-0.629,5.579-1.732,8.217c-1.572,2.604-3.924,4.317-2.562,8.935c-0.259,2.773-1.591,3.873-4.4,3.794
				c-1.778-0.05-3.547-0.472-5.315-0.759c-0.72-0.117-1.421-0.383-2.143-0.452c-0.322-0.031-0.674,0.257-1.013,0.401
				c0.195,0.316,0.332,0.84,0.595,0.913c1.721,0.476,3.454,0.953,5.214,1.23c1.216,0.191,2.487,0.142,3.724,0.058
				c2.301-0.156,3.801-1.448,4.5-3.604c0.359-1.108-0.174-3.932,0.149-5.054c0.88-3.054,2.461-4.456,3.483-7.871
				c0.558,0.73,1.048,1.14,1.24,1.661c1.278,3.463,2.59,6.919,3.707,10.436c2.301,7.25,2.813,14.724,2.475,22.276
				c-0.04,0.903-0.214,1.838-0.527,2.683c-1.059,2.862-2.621,5.801-3.099,8.815c-0.61,3.846-3.141,7.797-4.771,11.275
				c-3.063,6.535-2.849,12.89-2.569,20.079c0.13,3.341,0.66,6.622,2.082,9.717c0.496,1.079,0.858,2.27,1.009,3.444
				c0.201,1.557-0.557,2.73-2.106,2.994c-1.662,0.283-3.414,0.339-5.089,0.155c-1.539-0.17-1.932-0.984-1.623-2.515
				C331.208,384.265,331.499,383.361,331.784,382.296z"/>
		</g>
		<g>
			<g>
				<g>
					<path fill="#ACC53F" d="M148.099,175.81c-0.459-2.693-0.711-5.456-0.711-8.279c0-27.048,21.926-48.974,48.974-48.974
						c27.047,0,48.974,21.926,48.974,48.974c0,2.78-0.244,5.503-0.689,8.157h10.344c0.368-2.668,0.573-5.388,0.573-8.157
						c0-32.696-26.506-59.201-59.202-59.201s-59.202,26.505-59.202,59.201c0,4.523,0.524,8.921,1.485,13.153
						C141.067,178.053,144.379,176.26,148.099,175.81z"/>
				</g>
				<g>
					<polygon fill="#ACC53F" points="200.758,105.249 192.841,105.249 196.937,81.909 					"/>
					<polygon fill="#ACC53F" points="217.91,108.744 210.277,106.642 220.422,85.227 					"/>
					<polygon fill="#ACC53F" points="232.928,116.411 226.112,112.384 241.509,94.372 					"/>
					<polygon fill="#ACC53F" points="245.602,127.998 240.071,122.333 259.633,108.96 					"/>
					<polygon fill="#ACC53F" points="254.735,142.248 250.906,135.319 273.315,127.615 					"/>
					<polygon fill="#ACC53F" points="259.859,158.738 258.093,151.021 281.758,149.807 					"/>
					<polygon fill="#ACC53F" points="260.496,175.492 260.642,167.576 283.902,172.104 					"/>
					<polygon fill="#ACC53F" points="176.439,108.31 184.13,106.434 174.618,84.73 					"/>
					<polygon fill="#ACC53F" points="160.967,115.698 167.783,111.671 152.386,93.66 					"/>
					<polygon fill="#ACC53F" points="148.293,126.827 153.824,121.162 134.262,107.79 					"/>
					<polygon fill="#ACC53F" points="138.854,140.619 142.683,133.69 120.275,125.986 					"/>
					<polygon fill="#ACC53F" points="133.527,156.294 135.293,148.577 111.628,147.363 					"/>
					<polygon fill="#ACC53F" points="132.228,172.081 132.082,164.166 108.822,168.693 					"/>
				</g>
			</g>
			<g>
				<path fill="#248B62" d="M326.869,192.853c-0.423-11.605-9.621-20.292-21.436-20.42c-11.489-0.125-21.348,8.922-21.503,20.319
					c-0.228,16.665-0.042,33.336-0.043,50.004c-0.001,11.12,13.598,24.308,27.19,17.613c2.317-1.142,3.599-1.72,5.044-2.484
					c-0.038,5.524,10.32,5.524,10.32,1.111C326.441,248.29,327.053,197.888,326.869,192.853z M314.005,239.999
					c-0.06,5.897-3.875,10.151-8.823,10.048c-4.318-0.09-8.466-4.708-8.5-9.975c-0.097-15.098-0.103-30.198,0.028-45.295
					c0.048-5.497,4.011-9.588,8.704-9.576c5.119,0.013,8.5,3.624,8.585,9.504c0.11,7.657,0.027,15.317,0.027,22.976
					C314.023,225.12,314.08,232.56,314.005,239.999z"/>
				<path fill="#248B62" d="M267.328,212.352c-3.526-0.198-9.195-0.062-12.695-0.062c-6.203,0-6.103,14.17,0.409,14.335
					c2.775,0.07,5.149,1.608,5.582,4.734c0.542,3.914,0.805,7.894-0.116,11.771c-0.963,4.055-5.675,7.392-9.265,6.877
					c-3.984-0.571-7.753-4.373-7.786-8.521c-0.126-16.009-0.15-32.02-0.014-48.029c0.036-4.264,3.194-7.392,7.273-8.093
					c3.751-0.645,8.062,1.739,9.497,5.512c0.61,1.603,0.907,3.381,1.008,5.119c0.416,7.151,12.623,6.351,12.401-0.346
					c-0.216-6.528-1.283-12.628-6.732-17.037c-5.906-5.42-13.133-5.613-20.517-5.182c-8.985,2.413-15.667,9.591-15.857,18.569
					c-0.363,17.095-0.406,34.211,0.035,51.303c0.257,9.976,8.829,17.922,18.754,18.705c11.779,0.928,20.591-4.495,23.216-14.782
					c0.519-10.28,0.68-18.915,0.795-28.695C273.185,215.245,271.955,212.611,267.328,212.352z"/>
				<path fill="#248B62" d="M146.305,197.083c0.518,3.735,3.656,7,6.745,6.94c3.331-0.065,5.939-1.575,7.024-4.917
					c3.445-10.606-3.307-22.743-14.281-25.767c-5.517-1.349-12.065-1.738-15.739,0.351l0.062-0.058
					c-10.391,6.655-12.015,16.734-10.065,27.664c1.395,7.815,6.596,13.673,12.293,18.976c2.884,2.685,5.922,5.244,8.519,8.188
					c3.389,3.842,5.73,8.228,5.003,13.693c-0.476,3.576-2.379,5.516-5.985,5.77c-3.929,0.277-5.78-1.282-6.803-5.386
					c-0.76-3.047-0.252-6.117-0.503-9.163c-0.333-4.034-2.375-5.896-6.336-5.986c-4.211-0.096-6.68,2.011-6.869,6.189
					c-0.139,3.059,0.047,6.134,0.117,9.202c0.189,8.229,4.645,14.999,11.49,17.489c8.627,3.138,19.473,1.162,24.459-4.606
					c1.271-1.47,2.535-3.165,3.117-4.977c3.418-10.639,2.798-20.774-4.641-29.716c-2.229-2.678-4.862-5.016-7.247-7.569
					c-3.425-3.664-7.488-6.749-10.154-11.103c-2.408-3.932-3.259-8.079-1.6-12.529c1.064-2.855,3.204-4.147,6.151-3.667
					c2.795,0.455,4.964,1.843,5.104,5.072C146.247,193.142,146.036,195.144,146.305,197.083z"/>
				<path fill="#248B62" d="M384.074,261.603c0.048-19.973-0.158-44.667,0.057-64.638c0.167-15.525-14.03-24.605-26.479-21.478
					c-1.023,0.257-3.682,1.843-3.682-0.325c0-0.871-0.067-1.401-0.067-2.216c-2.968,0-9.471,0-13.268,0
					c0.186,27.211,0.224,61.547,0.306,88.759c4.88,0,9.985,0,12.842,0c0.106-18.217-0.025-65.02,0.303-66.725
					c0.807-4.204,4.924-7.414,8.966-7.293c4.381,0.131,7.583,3.173,8.148,7.936c0.206,1.733,0.054,47.646,0.087,66.082
					C375.197,261.705,380.93,261.603,384.074,261.603z"/>
				<path fill="#248B62" d="M215.326,192.853c-0.423-11.605-9.621-20.292-21.436-20.42c-11.489-0.125-21.348,8.922-21.503,20.319
					c-0.228,16.665-0.042,33.336-0.043,50.004c-0.001,11.12,13.598,24.308,27.19,17.613c2.317-1.142,3.599-1.72,5.044-2.484
					c-0.038,5.524,10.32,5.524,10.32,1.111C214.898,248.29,215.509,197.888,215.326,192.853z M202.462,239.999
					c-0.06,5.897-3.875,10.151-8.823,10.048c-4.318-0.09-8.466-4.708-8.5-9.975c-0.097-15.098-0.103-30.198,0.028-45.295
					c0.048-5.497,4.011-9.588,8.704-9.576c5.119,0.013,8.5,3.624,8.585,9.504c0.11,7.657,0.027,15.317,0.027,22.976
					C202.48,225.12,202.537,232.56,202.462,239.999z"/>
			</g>
		</g>
	</g>
	
		<rect x="21.877" y="30.14" fill="none" stroke="#92C048" stroke-width="4" stroke-miterlimit="10" width="1121.626" height="492.425"/>
	<text transform="matrix(1 0 0 1 521.3929 216.3457)" font-family="'Chosence'" font-size="74.9601px">S</text>
	<text transform="matrix(1 0 0 1 553.3461 216.3457)" font-family="'Chosence'" font-size="74.9601px">o</text>
	<text transform="matrix(1 0 0 1 586.2513 216.3457)" font-family="'Chosence'" font-size="74.9601px">c</text>
	<text transform="matrix(1 0 0 1 617.5453 216.3457)" font-family="'Chosence'" font-size="74.9601px">i</text>
	<text transform="matrix(1 0 0 1 632.5883 216.3457)" font-family="'Chosence'" font-size="74.9601px">e</text>
	<text transform="matrix(1 0 0 1 660.4056 216.3457)" font-family="'Chosence'" font-size="74.9601px">d</text>
	<text transform="matrix(1 0 0 1 693.3109 216.3457)" font-family="'Chosence'" font-size="74.9601px">a</text>
	<text transform="matrix(1 0 0 1 723.434 216.3457)" font-family="'Chosence'" font-size="74.9601px">d</text>
	<text transform="matrix(1 0 0 1 521.3929 306.2979)" font-family="'Chosence'" font-size="74.9601px">d</text>
	<text transform="matrix(1 0 0 1 554.2982 306.2979)" font-family="'Chosence'" font-size="74.9601px">e</text>
	<text transform="matrix(1 0 0 1 582.1156 306.2979)" font-family="'Chosence'" font-size="74.9601px"> </text>
	<text transform="matrix(1 0 0 1 598.6224 306.2979)" font-family="'Chosence'" font-size="74.9601px">A</text>
	<text transform="matrix(1 0 0 1 629.1478 306.2979)" font-family="'Chosence'" font-size="74.9601px">g</text>
	<text transform="matrix(1 0 0 1 662.0531 306.2979)" font-family="'Chosence'" font-size="74.9601px">r</text>
	<text transform="matrix(1 0 0 1 694.9584 306.2979)" font-family="'Chosence'" font-size="74.9601px">i</text>
	<text transform="matrix(1 0 0 1 710.0013 306.2979)" font-family="'Chosence'" font-size="74.9601px">c</text>
	<text transform="matrix(1 0 0 1 741.2953 306.2979)" font-family="'Chosence'" font-size="74.9601px">u</text>
	<text transform="matrix(1 0 0 1 774.2006 306.2979)" font-family="'Chosence'" font-size="74.9601px">l</text>
	<text transform="matrix(1 0 0 1 798.9066 306.2979)" font-family="'Chosence'" font-size="74.9601px">t</text>
	<text transform="matrix(1 0 0 1 821.0873 306.2979)" font-family="'Chosence'" font-size="74.9601px">o</text>
	<text transform="matrix(1 0 0 1 853.9926 306.2979)" font-family="'Chosence'" font-size="74.9601px">r</text>
	<text transform="matrix(1 0 0 1 886.8978 306.2979)" font-family="'Chosence'" font-size="74.9601px">e</text>
	<text transform="matrix(1 0 0 1 914.7152 306.2979)" font-family="'Chosence'" font-size="74.9601px">s</text>
	<text transform="matrix(1 0 0 1 521.3929 396.25)" font-family="'Chosence'" font-size="74.9601px">y</text>
	<text transform="matrix(1 0 0 1 548.1488 396.25)" font-family="'Chosence'" font-size="74.9601px"> </text>
	<text transform="matrix(1 0 0 1 564.6556 396.25)" font-family="'Chosence'" font-size="74.9601px">G</text>
	<text transform="matrix(1 0 0 1 598.1459 396.25)" font-family="'Chosence'" font-size="74.9601px">a</text>
	<text transform="matrix(1 0 0 1 628.2689 396.25)" font-family="'Chosence'" font-size="74.9601px">n</text>
	<text transform="matrix(1 0 0 1 660.8812 396.25)" font-family="'Chosence'" font-size="74.9601px">a</text>
	<text transform="matrix(1 0 0 1 691.0043 396.25)" font-family="'Chosence'" font-size="74.9601px">d</text>
	<text transform="matrix(1 0 0 1 723.9095 396.25)" font-family="'Chosence'" font-size="74.9601px">e</text>
	<text transform="matrix(1 0 0 1 751.7269 396.25)" font-family="'Chosence'" font-size="74.9601px">r</text>
	<text transform="matrix(1 0 0 1 784.6322 396.25)" font-family="'Chosence'" font-size="74.9601px">o</text>
	<text transform="matrix(1 0 0 1 817.5375 396.25)" font-family="'Chosence'" font-size="74.9601px">s</text>
	<text transform="matrix(1 0 0 1 849.601 396.25)" font-family="'Chosence'" font-size="74.9601px"> </text>
	<text transform="matrix(1 0 0 1 866.1078 396.25)" font-family="'Chosence'" font-size="74.9601px">d</text>
	<text transform="matrix(1 0 0 1 899.0131 396.25)" font-family="'Chosence'" font-size="74.9601px">e</text>
	<text transform="matrix(1 0 0 1 926.8304 396.25)" font-family="'Chosence'" font-size="74.9601px"> </text>
	<text transform="matrix(1 0 0 1 943.3373 396.25)" font-family="'Chosence'" font-size="74.9601px">N</text>
	<text transform="matrix(1 0 0 1 976.5345 396.25)" font-family="'Chosence'" font-size="74.9601px">a</text>
	<text transform="matrix(1 0 0 1 1006.6576 396.25)" font-family="'Chosence'" font-size="74.9601px">r</text>
	<text transform="matrix(1 0 0 1 1039.5629 396.25)" font-family="'Chosence'" font-size="74.9601px">i</text>
	<text transform="matrix(1 0 0 1 1054.6058 396.25)" font-family="'Chosence'" font-size="74.9601px">ñ</text>
	<text transform="matrix(1 0 0 1 1087.2181 396.25)" font-family="'Chosence'" font-size="74.9601px">o</text>
</g>
<path fill="#145F3E" d="M291.362,340.04c0,0-0.15,2.211,0.774,4.418c0.693,1.655,1.935,2.87,2.078,3.178
	c0.126,0.271-0.408,2.673-0.326,3.66c0.044,0.529,0.626,0.683,0.847,0.406c0.39-0.49,0.672-3.088,0.739-3.005
	c0.253,0.313,0.603,0.333,0.874,0.542c0.093,0.072-0.379,2.68-0.413,3.426c-0.02,0.429,0.943,0.408,1.118,0.066
	c0.315-0.614,0.432-3.048,0.543-3.001c0.102,0.044,0.664,0.09,0.931,0.131c0.172,0.027-0.068,3.221-0.064,3.287
	c0.025,0.379,0.967,0.553,1.089,0.224c0.302-0.812,0.128-3.42,0.352-3.41c1.002,0.044,1.408-0.098,2.2-0.324
	c1.041-0.297,2.751-2.677,2.751-2.9S291.362,340.04,291.362,340.04z"/>
<path fill="#145F3E" d="M-17.57,384.843c0,0-0.476,3.531,0.271,5.804c0.117,0.356,0.249,0.688,0.392,0.996
	c0.126,0.271-0.434,3.469-0.352,4.457c0.044,0.529,0.626,0.683,0.847,0.406c0.39-0.49,0.672-3.088,0.739-3.005
	c0.253,0.313,0.603,0.333,0.874,0.542c0.093,0.072-0.379,2.68-0.413,3.426c-0.02,0.429,0.943,0.408,1.118,0.066
	c0.315-0.614,0.432-3.048,0.543-3.001c0.102,0.044,0.664,0.09,0.931,0.131c0.172,0.027-0.068,3.221-0.064,3.287
	c0.025,0.379,0.967,0.553,1.089,0.224c0.302-0.812,0.128-3.42,0.352-3.41c1.002,0.044,1.408-0.098,2.2-0.324
	c1.041-0.297,2.752-2.677,2.752-2.9C-6.292,391.317-17.57,384.843-17.57,384.843z"/>
<path fill="#92C048" d="M296.194,349.629"/>
</svg>
